<?xml version="1.0" encoding="UTF-8" standalone="no"?>
<!-- Created with Inkscape (http://www.inkscape.org/) -->

<svg
   xmlns:dc="http://purl.org/dc/elements/1.1/"
   xmlns:cc="http://creativecommons.org/ns#"
   xmlns:rdf="http://www.w3.org/1999/02/22-rdf-syntax-ns#"
   xmlns:svg="http://www.w3.org/2000/svg"
   xmlns="http://www.w3.org/2000/svg"
   xmlns:sodipodi="http://sodipodi.sourceforge.net/DTD/sodipodi-0.dtd"
   xmlns:inkscape="http://www.inkscape.org/namespaces/inkscape"
   width="64"
   height="64"
   viewBox="0 0 16.933333 16.933334"
   version="1.1"
   id="svg8"
   inkscape:version="0.92.0 r15299"
   sodipodi:docname="FireIcon.svg"
   inkscape:export-filename="C:\Users\Bryan\Documents\Unity Projects\TimeGame\Assets\Sprites\ElementIcons\Fire.png"
   inkscape:export-xdpi="96"
   inkscape:export-ydpi="96">
  <defs
     id="defs2" />
  <sodipodi:namedview
     id="base"
     pagecolor="#ffffff"
     bordercolor="#666666"
     borderopacity="1.0"
     inkscape:pageopacity="0.0"
     inkscape:pageshadow="2"
     inkscape:zoom="2.8"
     inkscape:cx="11.027454"
     inkscape:cy="41.65258"
     inkscape:document-units="px"
     inkscape:current-layer="layer1"
     showgrid="false"
     units="px"
     inkscape:snap-global="false"
     inkscape:window-width="1280"
     inkscape:window-height="670"
     inkscape:window-x="1912"
     inkscape:window-y="1072"
     inkscape:window-maximized="1" />
  <metadata
     id="metadata5">
    <rdf:RDF>
      <cc:Work
         rdf:about="">
        <dc:format>image/svg+xml</dc:format>
        <dc:type
           rdf:resource="http://purl.org/dc/dcmitype/StillImage" />
        <dc:title></dc:title>
      </cc:Work>
    </rdf:RDF>
  </metadata>
  <g
     inkscape:label="Layer 1"
     inkscape:groupmode="layer"
     id="layer1"
     transform="translate(0,-280.06665)">
    <g
       id="g4576"
       transform="translate(-3.3043358e-4,-0.13877098)">
      <path
         sodipodi:nodetypes="zzcccz"
         inkscape:connector-curvature="0"
         id="path4541"
         d="m 5.2486064,291.57725 c 0.2782633,2.55614 4.7104456,3.98571 6.0948666,0.61421 1.38442,-3.3715 -1.4054398,-6.59202 -3.0238098,-7.70127 -0.6457221,-0.42345 -1.8426339,-1.03943 -1.8426339,-1.03943 0,0 0.5612828,1.59594 0.4724702,2.4096 -0.3116173,2.41038 -1.9791564,3.16075 -1.7008931,5.71689 z"
         style="fill:#ff0011;fill-opacity:1;fill-rule:evenodd;stroke:#000000;stroke-width:0.5291667;stroke-linecap:butt;stroke-linejoin:miter;stroke-miterlimit:4;stroke-dasharray:none;stroke-opacity:1" />
      <path
         sodipodi:nodetypes="zzzccz"
         inkscape:connector-curvature="0"
         id="path4541-4"
         d="m 6.3832055,291.387 c 0.1772496,1.62823 3.2470768,2.56967 4.1289315,0.42207 0.881856,-2.1476 -0.9199691,-4.75014 -1.5870574,-5.30632 -0.6670883,-0.55617 -1.0812588,-0.97033 -1.0812588,-0.97033 0,0 0.018466,0.98576 -0.038108,1.50405 -0.1984956,1.53537 -1.5997575,2.72231 -1.4225073,4.35053 z"
         style="fill:#ff803a;fill-opacity:1;fill-rule:evenodd;stroke:none;stroke-width:0.67414284;stroke-linecap:butt;stroke-linejoin:miter;stroke-miterlimit:4;stroke-dasharray:none;stroke-opacity:1" />
      <path
         sodipodi:nodetypes="zzzccz"
         inkscape:connector-curvature="0"
         id="path4541-4-8"
         d="m 7.6833028,290.79443 c 0.08284,0.76098 1.5175707,1.20097 1.929719,0.19727 0.4121482,-1.00372 -0.4299617,-2.22005 -0.7417355,-2.48 -0.3117738,-0.25993 -0.5053427,-0.45349 -0.5053427,-0.45349 0,0 0.00863,0.46071 -0.01781,0.70293 -0.09277,0.71758 -0.747671,1.27232 -0.6648308,2.03329 z"
         style="fill:#ffc93a;fill-opacity:1;fill-rule:evenodd;stroke:none;stroke-width:0.31507087;stroke-linecap:butt;stroke-linejoin:miter;stroke-miterlimit:4;stroke-dasharray:none;stroke-opacity:1" />
    </g>
  </g>
</svg>
